<svg width="259" height="42" viewBox="0 0 259 42" fill="none" xmlns="http://www.w3.org/2000/svg">
<path d="M65.5996 35.2266C65.5996 35.7422 65.2949 36 64.6855 36H60.6602C60.2031 36 59.7109 35.8418 59.1836 35.5254C58.6562 35.1973 58.2461 34.8047 57.9531 34.3477L54.8594 29.4434C54.1211 28.248 53.377 27.3516 52.627 26.7539C51.877 26.1445 50.9746 25.8398 49.9199 25.8398H46.1406V34.3828C46.1406 34.8398 45.9766 35.2266 45.6484 35.543C45.332 35.8477 44.9453 36 44.4883 36H41.1836C40.7266 36 40.334 35.8359 40.0059 35.5078C39.6777 35.168 39.5137 34.7695 39.5137 34.3125V12.4629C39.5137 12.0059 39.6777 11.6074 40.0059 11.2676C40.334 10.9277 40.7266 10.7578 41.1836 10.7578H44.4883C44.9453 10.7578 45.332 10.9277 45.6484 11.2676C45.9766 11.6074 46.1406 12.0059 46.1406 12.4629V20.8828H49.9199C50.9512 20.8828 51.8535 20.6016 52.627 20.0391C53.4121 19.4766 54.1562 18.5684 54.8594 17.3145L57.584 12.4629C58.2051 11.3379 59.0488 10.7695 60.1152 10.7578H64.1758C64.7383 10.7578 65.0195 11.0039 65.0195 11.4961C65.0195 11.7656 64.9199 12.0879 64.7207 12.4629L60.9062 19.3711C60.3555 20.3789 59.7344 21.2109 59.043 21.8672C58.3633 22.5234 57.4727 22.9863 56.3711 23.2559C57.1445 23.4199 57.9355 23.9062 58.7441 24.7148C59.5645 25.5234 60.2852 26.4023 60.9062 27.3516L65.3008 34.3477C65.5 34.6875 65.5996 34.9805 65.5996 35.2266ZM66.0566 34.3828L70.4688 17.6484C71.6641 13.0898 75.5547 10.8047 82.1406 10.793H91.6152C92.0488 10.793 92.4062 10.957 92.6875 11.2852C92.9805 11.6133 93.127 11.9941 93.127 12.4277V34.3828C93.127 34.8398 92.9629 35.2266 92.6348 35.543C92.3066 35.8477 91.9141 36 91.457 36H88.1523C87.6719 36 87.2734 35.8477 86.957 35.543C86.6523 35.2266 86.5 34.8281 86.5 34.3477V29.918H74.002L72.8242 34.3477C72.707 34.8281 72.4434 35.2266 72.0332 35.543C71.623 35.8477 71.1895 36 70.7324 36H67.2695C66.8125 36 66.4844 35.8711 66.2852 35.6133C66.0859 35.3438 65.9863 35.1094 65.9863 34.9102C65.998 34.7109 66.0215 34.5352 66.0566 34.3828ZM75.3027 24.9434H86.5V15.7676H81.4902C80.3652 15.7676 79.3809 16.0898 78.5371 16.7344C77.7051 17.3672 77.1426 18.2227 76.8496 19.3008L75.3027 24.9434ZM95.9922 14.1152V12.4629C95.9922 11.9824 96.1504 11.584 96.4668 11.2676C96.7832 10.9512 97.1816 10.793 97.6621 10.793H119.969C120.449 10.793 120.848 10.9512 121.164 11.2676C121.48 11.584 121.639 11.9824 121.639 12.4629V14.1152C121.639 14.5957 121.48 14.9941 121.164 15.3105C120.848 15.6152 120.449 15.7676 119.969 15.7676H112.129V34.3828C112.129 34.8398 111.965 35.2266 111.637 35.543C111.32 35.8477 110.934 36 110.477 36H107.154C106.697 36 106.305 35.8477 105.977 35.543C105.66 35.2266 105.502 34.8398 105.502 34.3828V15.7676H97.6621C97.1816 15.7676 96.7832 15.6152 96.4668 15.3105C96.1504 14.9941 95.9922 14.5957 95.9922 14.1152ZM124.521 34.3828V12.4629C124.521 12.0059 124.686 11.6133 125.014 11.2852C125.342 10.957 125.734 10.793 126.191 10.793H129.461C129.941 10.793 130.34 10.957 130.656 11.2852C130.984 11.6133 131.148 12.0059 131.148 12.4629V34.3477C131.148 34.8047 130.979 35.1973 130.639 35.5254C130.311 35.8418 129.918 36 129.461 36H126.191C125.734 36 125.342 35.8477 125.014 35.543C124.686 35.2266 124.521 34.8398 124.521 34.3828ZM134.119 34.3828L138.531 17.6484C139.727 13.0898 143.617 10.8047 150.203 10.793H159.678C160.111 10.793 160.469 10.957 160.75 11.2852C161.043 11.6133 161.189 11.9941 161.189 12.4277V34.3828C161.189 34.8398 161.025 35.2266 160.697 35.543C160.369 35.8477 159.977 36 159.52 36H156.215C155.734 36 155.336 35.8477 155.02 35.543C154.715 35.2266 154.562 34.8281 154.562 34.3477V29.918H142.064L140.887 34.3477C140.77 34.8281 140.506 35.2266 140.096 35.543C139.686 35.8477 139.252 36 138.795 36H135.332C134.875 36 134.547 35.8711 134.348 35.6133C134.148 35.3438 134.049 35.1094 134.049 34.9102C134.061 34.7109 134.084 34.5352 134.119 34.3828ZM143.365 24.9434H154.562V15.7676H149.553C148.428 15.7676 147.443 16.0898 146.6 16.7344C145.768 17.3672 145.205 18.2227 144.912 19.3008L143.365 24.9434ZM176.764 34.3828L181.176 17.6484C182.371 13.0898 186.262 10.8047 192.848 10.793H202.322C202.756 10.793 203.113 10.957 203.395 11.2852C203.688 11.6133 203.834 11.9941 203.834 12.4277V34.3828C203.834 34.8398 203.67 35.2266 203.342 35.543C203.014 35.8477 202.621 36 202.164 36H198.859C198.379 36 197.98 35.8477 197.664 35.543C197.359 35.2266 197.207 34.8281 197.207 34.3477V29.918H184.709L183.531 34.3477C183.414 34.8281 183.15 35.2266 182.74 35.543C182.33 35.8477 181.896 36 181.439 36H177.977C177.52 36 177.191 35.8711 176.992 35.6133C176.793 35.3438 176.693 35.1094 176.693 34.9102C176.705 34.7109 176.729 34.5352 176.764 34.3828ZM186.01 24.9434H197.207V15.7676H192.197C191.072 15.7676 190.088 16.0898 189.244 16.7344C188.412 17.3672 187.85 18.2227 187.557 19.3008L186.01 24.9434Z" fill="#561E1E"/>
<path fill-rule="evenodd" clip-rule="evenodd" d="M11.0541 11.5903C11.1393 11.6849 11.2051 11.7954 11.2476 11.9154C11.2901 12.0355 11.3085 12.1627 11.3018 12.2899C11.2951 12.4171 11.2633 12.5417 11.2084 12.6566C11.1535 12.7714 11.0765 12.8744 10.9817 12.9595L8.78979 14.9293C7.77196 15.8451 7.08608 16.4664 6.64175 16.9934C6.2155 17.501 6.1225 17.7968 6.1225 18.0499C6.1225 18.3031 6.2155 18.5976 6.64175 19.1052C7.08608 19.6335 7.77196 20.2548 8.78979 21.1693L10.9817 23.1417C11.1727 23.3137 11.2876 23.5545 11.301 23.8111C11.3145 24.0678 11.2254 24.3192 11.0534 24.5102C10.8815 24.7012 10.6407 24.816 10.384 24.8295C10.1274 24.8429 9.8759 24.7539 9.68492 24.5819L7.44129 22.5617C6.48933 21.7067 5.70141 20.9962 5.15891 20.353C4.59058 19.6749 4.185 18.9477 4.185 18.0499C4.185 17.1509 4.58929 16.4237 5.15891 15.7469C5.70141 15.1024 6.48933 14.3932 7.44129 13.5369L7.49296 13.4891L9.68492 11.5167C9.77952 11.4315 9.89 11.3657 10.01 11.3232C10.1301 11.2807 10.2573 11.2623 10.3845 11.269C10.5117 11.2757 10.6363 11.3074 10.7512 11.3623C10.866 11.4173 10.969 11.4956 11.0541 11.5903ZM18.3158 11.5206C18.4388 11.5533 18.5542 11.6099 18.6553 11.6872C18.7564 11.7645 18.8413 11.8609 18.9051 11.9711C18.9689 12.0812 19.0104 12.2028 19.0272 12.3289C19.044 12.4551 19.0358 12.5833 19.003 12.7063L13.8531 32.0813C13.787 32.3297 13.6249 32.5416 13.4026 32.6705C13.1802 32.7993 12.9157 32.8346 12.6674 32.7685C12.419 32.7024 12.2071 32.5403 12.0782 32.3179C11.9493 32.0956 11.9141 31.8311 11.9802 31.5827L17.1301 12.2077C17.1628 12.0847 17.2194 11.9694 17.2967 11.8683C17.374 11.7672 17.4705 11.6823 17.5806 11.6185C17.6907 11.5546 17.8123 11.5132 17.9385 11.4964C18.0646 11.4796 18.1929 11.4878 18.3158 11.5206ZM19.9472 19.5586C20.1192 19.3678 20.3599 19.2532 20.6164 19.2399C20.8729 19.2266 21.1242 19.3157 21.3151 19.4876L23.5587 21.5064C24.5107 22.3628 25.2986 23.0732 25.8411 23.7165C26.4094 24.3933 26.815 25.1218 26.815 26.0195C26.815 26.9172 26.4107 27.6457 25.8411 28.3226C25.2986 28.9658 24.5107 29.6762 23.5587 30.5313L21.3151 32.5528C21.1239 32.7247 20.8723 32.8137 20.6155 32.8002C20.3587 32.7866 20.1179 32.6716 19.9459 32.4804C19.7739 32.2893 19.685 32.0376 19.6985 31.7809C19.7121 31.5241 19.8271 31.2832 20.0182 31.1113L22.2102 29.1402C23.228 28.2231 23.9139 27.6031 24.3582 27.0748C24.7845 26.5685 24.8775 26.2714 24.8775 26.0195C24.8775 25.7677 24.7845 25.4706 24.3582 24.9642C23.9139 24.4347 23.228 23.8147 22.2102 22.8989L20.0182 20.9265C19.8275 20.7545 19.7128 20.5138 19.6995 20.2573C19.6862 20.0007 19.7753 19.7494 19.9472 19.5586Z" fill="#561E1E"/>
</svg>
