<svg width="81" height="19" viewBox="0 0 81 19" fill="none" xmlns="http://www.w3.org/2000/svg">
<path d="M29.5888 13.8533C29.5888 14.0252 29.4872 14.1111 29.2841 14.1111H27.9423C27.7899 14.1111 27.6259 14.0584 27.4501 13.9529C27.2743 13.8435 27.1376 13.7127 27.0399 13.5603L26.0087 11.9256C25.7626 11.5271 25.5145 11.2283 25.2645 11.0291C25.0145 10.826 24.7138 10.7244 24.3622 10.7244H23.1024V13.5721C23.1024 13.7244 23.0477 13.8533 22.9384 13.9588C22.8329 14.0603 22.704 14.1111 22.5516 14.1111H21.4501C21.2977 14.1111 21.1669 14.0564 21.0575 13.9471C20.9481 13.8338 20.8934 13.701 20.8934 13.5486V6.26541C20.8934 6.11307 20.9481 5.98026 21.0575 5.86697C21.1669 5.75369 21.2977 5.69705 21.4501 5.69705H22.5516C22.704 5.69705 22.8329 5.75369 22.9384 5.86697C23.0477 5.98026 23.1024 6.11307 23.1024 6.26541V9.07205H24.3622C24.7059 9.07205 25.0067 8.9783 25.2645 8.7908C25.5263 8.6033 25.7743 8.30057 26.0087 7.8826L26.9169 6.26541C27.1239 5.89041 27.4052 5.70096 27.7606 5.69705H29.1141C29.3016 5.69705 29.3954 5.77908 29.3954 5.94315C29.3954 6.03299 29.3622 6.14041 29.2958 6.26541L28.0243 8.56815C27.8407 8.90408 27.6337 9.18143 27.4032 9.40018C27.1766 9.61893 26.8798 9.77322 26.5126 9.86307C26.7704 9.91776 27.0341 10.0799 27.3036 10.3494C27.577 10.6189 27.8173 10.9119 28.0243 11.2283L29.4891 13.5603C29.5556 13.6736 29.5888 13.7713 29.5888 13.8533ZM29.7411 13.5721L31.2118 7.99393C31.6102 6.4744 32.9071 5.71268 35.1024 5.70877H38.2606C38.4052 5.70877 38.5243 5.76346 38.6181 5.87283C38.7157 5.98221 38.7645 6.10916 38.7645 6.25369V13.5721C38.7645 13.7244 38.7099 13.8533 38.6005 13.9588C38.4911 14.0603 38.3602 14.1111 38.2079 14.1111H37.1063C36.9462 14.1111 36.8134 14.0603 36.7079 13.9588C36.6063 13.8533 36.5556 13.7205 36.5556 13.5603V12.0838H32.3895L31.997 13.5603C31.9579 13.7205 31.87 13.8533 31.7333 13.9588C31.5966 14.0603 31.452 14.1111 31.2997 14.1111H30.1454C29.9931 14.1111 29.8837 14.0681 29.8173 13.9822C29.7509 13.8924 29.7177 13.8142 29.7177 13.7478C29.7216 13.6814 29.7294 13.6228 29.7411 13.5721ZM32.8231 10.4256H36.5556V7.36697H34.8856C34.5106 7.36697 34.1825 7.4744 33.9013 7.68924C33.6239 7.90018 33.4364 8.18533 33.3388 8.54471L32.8231 10.4256ZM39.7196 6.81619V6.26541C39.7196 6.10526 39.7724 5.97244 39.8778 5.86697C39.9833 5.76151 40.1161 5.70877 40.2763 5.70877H47.7118C47.872 5.70877 48.0048 5.76151 48.1102 5.86697C48.2157 5.97244 48.2684 6.10526 48.2684 6.26541V6.81619C48.2684 6.97635 48.2157 7.10916 48.1102 7.21463C48.0048 7.31619 47.872 7.36697 47.7118 7.36697H45.0985V13.5721C45.0985 13.7244 45.0438 13.8533 44.9345 13.9588C44.829 14.0603 44.7001 14.1111 44.5477 14.1111H43.4403C43.288 14.1111 43.1571 14.0603 43.0477 13.9588C42.9423 13.8533 42.8895 13.7244 42.8895 13.5721V7.36697H40.2763C40.1161 7.36697 39.9833 7.31619 39.8778 7.21463C39.7724 7.10916 39.7196 6.97635 39.7196 6.81619ZM49.2294 13.5721V6.26541C49.2294 6.11307 49.2841 5.98221 49.3934 5.87283C49.5028 5.76346 49.6337 5.70877 49.786 5.70877H50.8759C51.036 5.70877 51.1688 5.76346 51.2743 5.87283C51.3837 5.98221 51.4384 6.11307 51.4384 6.26541V13.5603C51.4384 13.7127 51.3817 13.8435 51.2684 13.9529C51.1591 14.0584 51.0282 14.1111 50.8759 14.1111H49.786C49.6337 14.1111 49.5028 14.0603 49.3934 13.9588C49.2841 13.8533 49.2294 13.7244 49.2294 13.5721ZM52.4286 13.5721L53.8993 7.99393C54.2977 6.4744 55.5946 5.71268 57.7899 5.70877H60.9481C61.0927 5.70877 61.2118 5.76346 61.3056 5.87283C61.4032 5.98221 61.452 6.10916 61.452 6.25369V13.5721C61.452 13.7244 61.3974 13.8533 61.288 13.9588C61.1786 14.0603 61.0477 14.1111 60.8954 14.1111H59.7938C59.6337 14.1111 59.5009 14.0603 59.3954 13.9588C59.2938 13.8533 59.2431 13.7205 59.2431 13.5603V12.0838H55.077L54.6845 13.5603C54.6454 13.7205 54.5575 13.8533 54.4208 13.9588C54.2841 14.0603 54.1395 14.1111 53.9872 14.1111H52.8329C52.6806 14.1111 52.5712 14.0681 52.5048 13.9822C52.4384 13.8924 52.4052 13.8142 52.4052 13.7478C52.4091 13.6814 52.4169 13.6228 52.4286 13.5721ZM55.5106 10.4256H59.2431V7.36697H57.5731C57.1981 7.36697 56.87 7.4744 56.5888 7.68924C56.3114 7.90018 56.1239 8.18533 56.0263 8.54471L55.5106 10.4256ZM76.0595 13.8592C76.0595 14.0271 75.9599 14.1111 75.7606 14.1111H74.3544C74.2059 14.1111 74.0419 14.0584 73.8622 13.9529C73.6864 13.8435 73.5516 13.7127 73.4579 13.5603L72.4618 12.0017C72.0516 11.3611 71.5556 11.0408 70.9735 11.0408H69.5438V13.5603C69.5438 13.7127 69.4891 13.8435 69.3798 13.9529C69.2743 14.0584 69.1454 14.1111 68.9931 14.1111H67.8915C67.7391 14.1111 67.6083 14.0584 67.4989 13.9529C67.3895 13.8435 67.3349 13.7127 67.3349 13.5603V6.26541C67.3349 6.11307 67.3876 5.98221 67.4931 5.87283C67.5985 5.76346 67.7274 5.70877 67.8798 5.70877H72.7138C73.6083 5.70877 74.3407 5.94901 74.911 6.42947C75.4852 6.90994 75.7724 7.55838 75.7724 8.37479C75.7724 9.51151 75.036 10.2244 73.5634 10.5135C73.7977 10.5994 74.0145 10.7478 74.2138 10.9588C74.413 11.1658 74.6415 11.4685 74.8993 11.867L75.9657 13.5603C76.0282 13.6697 76.0595 13.7693 76.0595 13.8592ZM69.5438 9.3826H72.0399C72.4423 9.3826 72.7958 9.30252 73.1005 9.14236C73.4091 8.98221 73.5634 8.72635 73.5634 8.37479C73.5634 8.02322 73.4091 7.76736 73.1005 7.60721C72.7958 7.44705 72.4423 7.36697 72.0399 7.36697H69.5438V9.3826Z" fill="#F9F9F9"/>
<path fill-rule="evenodd" clip-rule="evenodd" d="M6.77508 3.42633C6.82733 3.48432 6.86763 3.55203 6.89368 3.62561C6.91973 3.69918 6.93102 3.77717 6.9269 3.85511C6.92279 3.93305 6.90334 4.00941 6.86968 4.07983C6.83603 4.15025 6.78881 4.21334 6.73075 4.2655L5.38729 5.47279C4.76346 6.03408 4.34308 6.41487 4.07075 6.73787C3.8095 7.049 3.7525 7.23029 3.7525 7.38546C3.7525 7.54063 3.8095 7.72112 4.07075 8.03225C4.34308 8.35604 4.76346 8.73683 5.38729 9.29733L6.73075 10.5062C6.8478 10.6116 6.91819 10.7592 6.92643 10.9165C6.93467 11.0738 6.88009 11.2279 6.77469 11.345C6.66929 11.462 6.5217 11.5324 6.3644 11.5407C6.2071 11.5489 6.05297 11.4943 5.93592 11.3889L4.56079 10.1507C3.97733 9.62667 3.49442 9.19125 3.16192 8.797C2.81358 8.38138 2.565 7.93567 2.565 7.38546C2.565 6.83446 2.81279 6.38875 3.16192 5.97392C3.49442 5.57887 3.97733 5.14425 4.56079 4.61937L4.59246 4.59008L5.93592 3.38121C5.9939 3.32896 6.06162 3.28866 6.13519 3.26261C6.20876 3.23656 6.28675 3.22527 6.36469 3.22939C6.44263 3.23351 6.519 3.25295 6.58942 3.28661C6.65984 3.32027 6.72293 3.36827 6.77508 3.42633ZM11.2258 3.38358C11.3012 3.40363 11.3719 3.43833 11.4339 3.4857C11.4959 3.53308 11.5479 3.5922 11.587 3.65969C11.6261 3.72718 11.6515 3.80172 11.6618 3.87904C11.6721 3.95637 11.6671 4.03496 11.647 4.11033L8.49063 15.9853C8.4501 16.1376 8.35077 16.2674 8.21448 16.3464C8.07818 16.4254 7.9161 16.447 7.76388 16.4065C7.61165 16.366 7.48176 16.2666 7.40278 16.1304C7.32379 15.9941 7.30219 15.832 7.34271 15.6797L10.4991 3.80475C10.5191 3.72936 10.5538 3.65866 10.6012 3.59669C10.6486 3.53472 10.7077 3.48269 10.7752 3.44358C10.8427 3.40447 10.9172 3.37904 10.9945 3.36874C11.0719 3.35845 11.1505 3.36349 11.2258 3.38358ZM12.2257 8.31012C12.3311 8.19321 12.4787 8.12294 12.6359 8.11477C12.7931 8.10661 12.9471 8.16121 13.0641 8.26658L14.4392 9.50396C15.0227 10.0288 15.5056 10.4642 15.8381 10.8585C16.1864 11.2733 16.435 11.7198 16.435 12.27C16.435 12.8202 16.1872 13.2667 15.8381 13.6816C15.5056 14.0758 15.0227 14.5113 14.4392 15.0353L13.0641 16.2743C12.9469 16.3797 12.7927 16.4342 12.6353 16.4259C12.4779 16.4176 12.3303 16.3471 12.2249 16.23C12.1195 16.1128 12.065 15.9586 12.0733 15.8012C12.0816 15.6438 12.1521 15.4962 12.2693 15.3908L13.6127 14.1827C14.2365 13.6206 14.6569 13.2406 14.9293 12.9168C15.1905 12.6065 15.2475 12.4244 15.2475 12.27C15.2475 12.1157 15.1905 11.9336 14.9293 11.6233C14.6569 11.2987 14.2365 10.9187 13.6127 10.3574L12.2693 9.1485C12.1523 9.04308 12.0821 8.89554 12.0739 8.73833C12.0657 8.58111 12.1203 8.42709 12.2257 8.31012Z" fill="#F9F9F9"/>
</svg>
